# xmcd
#
# Track frame offsets:
#	150
#	14925
#	27630
#	41472
#	55542
#	68737
#	88020
#	106640
#	121645
#	136915
#	149282
#	163595
#	176077
#	190870
#	206175
#	221275
#	234767
#	250572
#	264020
#
# Disc length: 3721
#
# Revision: 2
# Processed by: cddbd v1.5.1PL0 Copyright (c) Steve Scherf et al.
# Submitted via: audiograbber 1.80
# Normalized: r1:DSETVAR1
#
DISCID=fa0e8713
DTITLE=Various Artist - Classic Country - Volume 1
DYEAR=1900
DGENRE=
TTITLE0=Waylon Jennings - Luckenbach, Texas (Back to the Basics of Love)
TTITLE1=Gary Stewart - She's Actin' Single (I'm Drinkin' Doubles)
TTITLE2=Jim Ed Brown and Helen Cornelius - I Don't Want To Have To Marry You
TTITLE3=Sue Powell - (There's No Me) Without You
TTITLE4=Dolly Parton - Here You Come Again
TTITLE5=Ronnie Milsap - Lost In The Fifties Tonight (In the Still of the Night)
TTITLE6=Deborah Allen - Baby I Lied
TTITLE7=Sylvia - Nobody
TTITLE8=Louise Mandrell - I Wanna Say Yes
TTITLE9=Dave and Sugar - The Door Is Always Open
TTITLE10=Earl Thomas Conley - Holding Her And Loving You
TTITLE11=Zella Lehr - Two Doors Dwan
TTITLE12=Jerry Reed - She Got The Goldmine (I Got The Shaft)
TTITLE13=Eddie Rabbitt - The Wanderer
TTITLE14=Dottsy - (After Sweet Memories) Play Born To Lose Again
TTITLE15=Dickey Lee - 9,999,999 Tears
TTITLE16=Ed Bruce - You Turn Me On (Like A Radio)
TTITLE17=Waylon Jennings and Willie Nelson - Good Hearted Woman
TTITLE18=Leon Everette - Hurricane
EXTD=
EXTT0=
EXTT1=
EXTT2=
EXTT3=
EXTT4=
EXTT5=
EXTT6=
EXTT7=
EXTT8=
EXTT9=
EXTT10=
EXTT11=
EXTT12=
EXTT13=
EXTT14=
EXTT15=
EXTT16=
EXTT17=
EXTT18=
PLAYORDER=
